<?xml version="1.0" encoding="UTF-8" standalone="no"?>
<!-- Created with Inkscape (http://www.inkscape.org/) -->

<svg
   width="784.43781"
   height="864.66406"
   viewBox="0 0 784.43781 864.66406"
   version="1.1"
   id="svg1"
   xml:space="preserve"
   sodipodi:docname="logo.svg"
   inkscape:version="1.4 (86a8ad7, 2024-10-11)"
   xmlns:inkscape="http://www.inkscape.org/namespaces/inkscape"
   xmlns:sodipodi="http://sodipodi.sourceforge.net/DTD/sodipodi-0.dtd"
   xmlns="http://www.w3.org/2000/svg"
   xmlns:svg="http://www.w3.org/2000/svg"><sodipodi:namedview
     id="namedview1"
     pagecolor="#ffffff"
     bordercolor="#000000"
     borderopacity="0.25"
     inkscape:showpageshadow="2"
     inkscape:pageopacity="0.0"
     inkscape:pagecheckerboard="0"
     inkscape:deskcolor="#d1d1d1"
     inkscape:zoom="0.91943222"
     inkscape:cx="392.0898"
     inkscape:cy="432.33203"
     inkscape:window-width="1920"
     inkscape:window-height="991"
     inkscape:window-x="-9"
     inkscape:window-y="-9"
     inkscape:window-maximized="1"
     inkscape:current-layer="svg1" /><defs
     id="defs1" /><g
     id="layer1"
     transform="translate(-567.78107,-107.66798)"
     style="fill:#71a9da;fill-opacity:1"><path
       style="fill:#71a9da;fill-opacity:1"
       d="m 927.55311,972.10446 c -4.7871,-0.4595 -6.5656,-1.28741 -9.8753,-4.59714 -4.2206,-4.2206 -5.8383,-10.71066 -4.7291,-18.9732 0.7548,-5.62318 2.0852,-8.40551 5.806,-12.14273 3.8932,-3.91032 7.2484,-5.02791 12.4009,-4.13064 4.1778,0.72752 7.528,2.01237 7.528,2.88705 0,1.17723 -1.89,2.38715 -3.7166,2.37926 -0.9879,-0.004 -3.2873,-0.35928 -5.1097,-0.78891 -3.8586,-0.90968 -4.4228,-0.7156 -7.1367,2.45506 -3.0442,3.55647 -4.1871,7.168 -4.2104,13.3051 -0.017,4.37942 0.179,5.68581 1.1793,7.87552 2.6993,5.9089 5.7488,7.58483 13.8313,7.60147 5.7564,0.0118 6.3263,0.22745 5.8149,2.19994 -0.4725,1.82251 -5.0633,2.57418 -11.7826,1.92922 z m -26.9096,-0.57365 c -0.1125,-0.36096 -0.3391,-6.79919 -0.5035,-14.30719 -0.1645,-7.50799 -0.4521,-16.04349 -0.6393,-18.96777 l -0.3402,-5.31687 1.9382,-0.63969 c 1.0661,-0.35183 2.4821,-0.50322 3.1466,-0.33643 l 1.2083,0.30326 0.4702,19.2366 c 0.4602,18.82799 0.4482,19.25197 -0.5654,19.96049 -1.2925,0.90343 -4.4402,0.94856 -4.7149,0.0676 z m 43.1155,0.30628 c -0.1926,-0.19252 -0.3501,-0.96453 -0.3501,-1.71559 0,-1.54604 5.1019,-14.23355 9.8313,-24.44864 1.738,-3.754 3.6038,-8.09591 4.1461,-9.6487 1.1771,-3.37003 2.6241,-4.51754 5.1087,-4.05142 1.4036,0.26331 1.9351,0.73184 2.5984,2.29026 1.4715,3.45735 4.6162,12.76746 6.9576,20.59796 1.2519,4.18716 2.8653,9.32384 3.5853,11.41486 1.1862,3.44477 1.2322,3.87881 0.4899,4.62109 -0.5423,0.54235 -1.5479,0.76573 -2.9751,0.66094 l -2.1558,-0.15829 -1.2054,-5.25035 c -0.663,-2.88769 -1.5605,-6.49074 -1.9946,-8.00678 l -0.7891,-2.75643 h -6.2723 -6.2723 l -0.7454,1.44384 c -0.41,0.79412 -1.6299,4.27904 -2.7108,7.74427 -1.081,3.46522 -2.1981,6.59574 -2.4826,6.9567 -0.5388,0.68385 -4.1539,0.91626 -4.7638,0.30628 z m 20.9259,-22.09521 c -0.3907,-2.09448 -3.4154,-10.29248 -3.6937,-10.01127 -0.3869,0.39094 -3.8814,8.69061 -4.2035,9.98357 -0.3495,1.40266 -0.3236,1.41798 2.7161,1.60709 1.6879,0.10502 3.6268,0.23561 4.3087,0.29021 1.1581,0.0927 1.2155,-0.0303 0.8724,-1.8696 z m 52.56179,21.00138 c -0.9147,-1.77492 -4.8591,-14.21243 -7.5344,-23.75781 -1.0927,-3.89839 -2.2229,-7.07208 -2.5117,-7.05265 -0.2887,0.0194 -1.7063,2.38208 -3.1502,5.25034 -1.9655,3.90455 -2.9089,5.25548 -3.7544,5.37598 -1.57499,0.22449 -4.47959,-2.47213 -6.86689,-6.37514 -1.7305,-2.82932 -1.9987,-3.07132 -2.1321,-1.92385 -0.31,2.66714 -3.2698,18.33904 -4.3472,23.01826 -0.6121,2.65835 -1.4617,5.18218 -1.888,5.60852 -0.8171,0.81712 -4.6514,1.07778 -5.1031,0.34692 -0.1456,-0.23553 0.2048,-2.26109 0.7787,-4.50123 1.521,-5.93745 3.4271,-15.37098 4.6596,-23.06141 1.4473,-9.03101 2.1981,-10.71979 5.1714,-11.6323 1.6074,-0.4933 2.8067,0.62642 5.3678,5.01158 3.071,5.2584 3.1438,5.27445 5.75359,1.26886 3.3662,-5.16677 6.7492,-7.52541 8.8736,-6.18672 0.4606,0.29029 1.3322,2.39241 1.9369,4.67137 0.6046,2.27896 3.2341,10.51858 5.8433,18.31027 2.6092,7.79169 4.6257,14.47493 4.4812,14.85165 -0.3086,0.80419 -2.882,2.22121 -4.0338,2.22121 -0.4401,0 -1.135,-0.64973 -1.5443,-1.44385 z M 797.02101,917.5703 c -4.2719,-0.88392 -8.6023,-4.64648 -10.7878,-9.37315 -0.9831,-2.126 -1.1222,-3.37089 -1.1222,-10.03993 0,-8.78344 0.5334,-10.45271 4.8878,-15.29587 4.1562,-4.62267 8.4747,-5.9529 14.9064,-4.59159 5.4554,1.15467 6.9694,2.73576 4.2966,4.48704 -1.2994,0.85138 -1.6274,0.84852 -6.0879,-0.0531 -4.6382,-0.93756 -4.737,-0.93627 -6.1083,0.0798 -4.2477,3.1473 -6.6276,8.88437 -6.5954,15.89873 0.024,5.11159 1.2181,8.50136 4.047,11.48361 2.7944,2.94579 5.1278,3.71772 11.2779,3.73086 4.433,0.009 5.4551,0.16015 5.717,0.84281 0.1875,0.48836 -0.1498,1.30055 -0.8175,1.96888 -0.9935,0.99438 -1.7794,1.14976 -6.2421,1.23417 -2.8081,0.0531 -6.1252,-0.11442 -7.3715,-0.37229 z m 30.455,-0.79864 c -1.5334,-0.77752 -3.9529,-2.50772 -5.3766,-3.84489 -2.3842,-2.23918 -2.629,-2.70081 -3.0996,-5.84396 -1.0041,-6.70709 -1.6694,-19.66275 -1.2393,-24.13294 0.4247,-4.41317 0.4393,-4.44747 2.0986,-4.92237 0.9191,-0.26303 2.2537,-0.33199 2.9658,-0.15325 l 1.2948,0.32498 0.2292,12.99794 c 0.2494,14.14639 0.6233,16.2525 3.3996,19.15035 2.8973,3.02415 8.2941,3.83337 11.5105,1.72592 1.6495,-1.08083 3.5385,-5.09715 4.693,-9.97846 0.7205,-3.04624 0.8114,-5.30805 0.5307,-13.21572 -0.3365,-9.48441 -0.3316,-9.54534 0.845,-10.36943 1.8139,-1.27052 3.5145,-1.05642 4.113,0.51781 0.7935,2.08686 0.6066,17.67149 -0.2828,23.59238 -1.4014,9.3287 -2.6338,11.62183 -7.5004,13.95566 -1.7781,0.85268 -3.7154,1.24307 -6.9307,1.39658 -4.0379,0.19278 -4.7283,0.0785 -7.2508,-1.2006 z m 93.6022,0.60203 c -0.9631,-0.70428 -0.969,-0.84081 -0.1404,-3.28147 1.4655,-4.31724 5.8604,-14.79787 9.3241,-22.23541 1.8154,-3.89839 3.743,-8.36172 4.2834,-9.91851 1.3259,-3.81951 1.7837,-4.25743 4.4516,-4.25743 2.5971,0 3.1049,0.6324 4.6222,5.75536 0.4672,1.57721 1.5847,4.7668 2.4834,7.08796 0.8988,2.32117 2.0847,5.87417 2.6354,7.89555 0.5507,2.02138 1.9813,6.81135 3.1791,10.64436 1.5279,4.88947 2.0125,7.13445 1.6238,7.52318 -0.3048,0.30473 -1.5192,0.6835 -2.6987,0.84171 -2.569,0.34458 -2.6054,0.28188 -4.3021,-7.41675 -0.6313,-2.86474 -1.4357,-6.03999 -1.7875,-7.05611 l -0.6396,-1.84749 -6.2652,-0.20452 -6.2653,-0.20452 -1.6837,4.63545 c -0.926,2.5495 -2.1647,6.3191 -2.7526,8.3769 -0.9866,3.45279 -1.1954,3.76671 -2.7069,4.06901 -2.19,0.43801 -2.2079,0.43583 -3.361,-0.40727 z m 21.2807,-20.43376 c 0,-1.607 -3.5775,-10.8585 -4.1989,-10.8585 -0.2169,0 -1.3527,2.30359 -2.524,5.11908 -1.8898,4.54241 -2.0303,5.15929 -1.2474,5.47597 0.8714,0.35248 7.9703,0.58713 7.9703,0.26345 z m 33.0176,20.84453 c -0.7482,-0.22111 -0.8402,-1.58113 -0.7876,-11.64515 0.033,-6.26715 -0.059,-14.67411 -0.2029,-18.68214 l -0.2625,-7.28733 1.4833,-1.11323 c 1.3273,-0.99617 2.1555,-1.11048 7.8755,-1.08719 7.4949,0.0305 10.7981,1.03021 14.6724,4.44047 3.33219,2.93314 4.23059,5.11687 4.16559,10.1249 -0.1317,10.13813 -5.74939,19.644 -14.02089,23.72491 -2.6475,1.30621 -3.8624,1.57185 -7.613,1.66467 -2.4545,0.0607 -4.844,-0.002 -5.3099,-0.13991 z m 9.81,-4.93911 c 1.6992,-0.58459 3.8839,-1.82499 4.855,-2.75643 3.9073,-3.7477 7.2733,-13.50313 6.9742,-20.21272 -0.07,-1.56709 -3.9071,-5.69172 -6.5926,-7.08631 -2.1819,-1.1331 -6.0444,-1.45626 -8.8179,-0.73775 l -1.4438,0.37405 v 8.57005 c 0,12.97769 0.5687,22.91202 1.3117,22.91202 0.3432,0 2.0142,-0.47831 3.7134,-1.06291 z m 99.85049,4.71469 c -0.5053,-0.30456 -0.9188,-0.91831 -0.9188,-1.36389 0,-1.15851 5.74,-15.26676 10.223,-25.1269 2.1007,-4.6203 3.9922,-8.99121 4.2034,-9.71314 0.8048,-2.75141 1.7703,-3.67566 3.8307,-3.6672 1.0762,0.004 2.2801,0.21286 2.6752,0.46319 0.6837,0.4331 3.8792,9.10062 6.6979,18.1675 0.7182,2.31015 2.3983,7.68989 3.7335,11.95496 1.7087,5.45812 2.263,7.91936 1.8717,8.31073 -0.3059,0.30583 -1.5212,0.68549 -2.7007,0.8437 -2.6111,0.35022 -2.6747,0.23722 -4.4958,-7.98352 -2.0404,-9.21052 -1.2268,-8.39831 -8.5836,-8.56917 l -6.2886,-0.14605 -1.3647,3.68198 c -0.7507,2.02508 -1.9599,5.73444 -2.6871,8.24302 -0.7273,2.50857 -1.3852,4.62259 -1.4622,4.69782 -0.5202,0.50883 -3.9819,0.66017 -4.7339,0.20697 z m 20.3201,-23.17278 c -0.9289,-3.52148 -2.8742,-8.30583 -3.377,-8.30583 -0.4185,0 -2.6691,4.77443 -3.9146,8.30459 -0.8955,2.53811 -0.8467,2.56687 4.5127,2.66023 l 3.4964,0.0609 z m 19.5207,23.34746 c -0.8921,-0.22929 -0.9573,-0.68548 -0.723,-5.05819 0.2402,-4.48216 -0.2003,-18.00043 -0.9445,-28.98594 -0.322,-4.75226 -0.3217,-4.75365 1.0565,-5.3816 1.7098,-0.77903 4.3011,-0.81628 4.7633,-0.0685 0.1902,0.3078 0.4086,4.85591 0.4853,10.10691 0.077,5.251 0.3258,13.73782 0.5536,18.85961 l 0.4142,9.31233 -1.9017,0.79458 c -1.9734,0.82451 -2.0838,0.83706 -3.7037,0.42077 z m -402.41249,-0.82311 c -0.637,-0.76761 -1.0095,-37.96698 -0.3863,-38.59064 0.617,-0.61755 23.3397,-0.70499 24.4809,-0.0942 1.387,0.74229 1.2673,1.88723 -0.305,2.91744 -1.0933,0.71633 -2.7268,0.8511 -9.6468,0.7959 l -8.3306,-0.0665 -0.3289,1.64449 c -0.1809,0.90447 -0.3289,3.74134 -0.3289,6.30417 v 4.65968 h 6.807 c 6.1013,0 6.8612,0.10134 7.3301,0.97754 1.3016,2.43209 -2.0287,3.5964 -10.5931,3.70347 l -3.544,0.0443 v 5.7412 c 0,3.15766 0.2423,6.37849 0.5384,7.15739 l 0.5385,1.41619 8.7185,-0.20068 c 7.6663,-0.17646 8.7852,-0.0962 9.2699,0.66511 0.4097,0.64353 0.3215,1.21635 -0.3436,2.23139 l -0.8947,1.36561 h -11.2119 c -8.4678,0 -11.3483,-0.16444 -11.7695,-0.67189 z m 36.4314,-0.15834 c -3.8623,-0.8652 -6.6004,-2.03682 -6.6004,-2.82431 0,-0.26256 0.2304,-1.08342 0.5121,-1.82414 0.6409,-1.68585 1.998,-1.73615 7.6732,-0.2844 4.4621,1.14143 7.1841,1.05564 11.1097,-0.35014 2.0073,-0.7188 2.2314,-0.97152 2.2314,-2.51563 0,-3.75861 -2.2495,-5.52783 -13.6372,-10.72539 -1.7636,-0.80494 -3.2731,-2.00332 -4.2986,-3.41273 -1.4822,-2.03702 -1.5687,-2.41717 -1.3903,-6.10993 0.159,-3.2893 0.441,-4.31088 1.7127,-6.20351 0.8373,-1.24616 2.1517,-2.59118 2.9209,-2.98893 3.5922,-1.85764 15.619,-2.41094 17.551,-0.80745 1.006,0.83485 1.0546,2.64856 0.1058,3.94611 -0.6447,0.88163 -1.2356,0.94028 -6.3324,0.62843 -4.5003,-0.27536 -5.9281,-0.18532 -7.1596,0.45149 -2.3552,1.21796 -3.3096,3.03326 -2.9657,5.64123 0.3835,2.90758 2.5967,4.84465 8.1592,7.14128 7.6332,3.15151 10.5517,6.80954 10.5731,13.2524 0.01,2.99529 -0.1656,3.64946 -1.2773,4.76117 -0.7088,0.70884 -2.1855,1.57941 -3.2815,1.93461 -3.2732,1.06085 -11.4835,1.21333 -15.6061,0.28984 z m 100.0974,0.17394 c -0.3278,-0.40001 -0.6876,-7.95697 -0.9214,-19.35227 -0.3211,-15.64568 -0.2652,-18.77192 0.3423,-19.16148 0.79,-0.50662 22.0333,-0.91979 23.9587,-0.46599 1.5783,0.37203 1.6111,2.61663 0.05,3.45193 -0.7381,0.39499 -4.1126,0.58184 -9.7132,0.53785 l -8.5822,-0.0674 v 3.87014 c 0,2.12858 -0.1502,4.96631 -0.3339,6.30607 l -0.3338,2.43594 h 6.5913 c 7.3001,0 8.2524,0.18685 8.2524,1.61917 0,1.85951 -2.1439,2.59382 -8.5798,2.93873 l -6.0913,0.32644 0.3271,6.61468 c 0.1888,3.81925 0.5708,6.79321 0.9038,7.03713 0.3173,0.23235 4.4752,0.35048 9.2399,0.26252 l 8.6631,-0.15994 0.1734,1.22463 c 0.095,0.67354 -0.2366,1.67767 -0.7377,2.23139 -0.8422,0.93064 -1.7338,1.00677 -11.7911,1.00677 -8.0672,0 -11.0192,-0.16967 -11.418,-0.65629 z m 32.8112,-0.26974 c -0.7266,-0.80281 -0.8615,-3.38591 -1.0141,-19.4112 l -0.1761,-18.48515 1.4014,-0.58045 c 0.7707,-0.31924 2.0764,-0.50323 2.9015,-0.40886 l 1.5003,0.17158 0.3234,16.53859 c 0.1778,9.09623 0.355,16.93129 0.3938,17.41125 0.1084,1.34396 3.1431,1.60375 11.629,0.99548 6.6525,-0.47684 7.6804,-0.44408 8.2059,0.26161 0.7921,1.06364 0.3242,2.70232 -1.0455,3.66169 -0.8845,0.61952 -3.2861,0.77149 -12.1915,0.77149 -9.9282,0 -11.1779,-0.097 -11.9281,-0.92603 z m 116.30129,0.26974 c -0.3242,-0.39765 -0.6862,-8.02504 -0.9184,-19.35414 -0.32,-15.61047 -0.2639,-18.7744 0.3396,-19.16149 0.7879,-0.5053 22.0345,-0.91692 23.9557,-0.46411 1.5784,0.37203 1.6111,2.61663 0.05,3.45193 -0.738,0.39499 -4.1126,0.58184 -9.7131,0.53785 l -8.5822,-0.0674 -0.01,4.33719 c 0,2.38546 -0.1512,5.21633 -0.3288,6.29083 l -0.3229,1.95364 7.2854,0.1465 7.2854,0.14651 0.1569,1.3479 c 0.2251,1.93355 -1.5465,2.55877 -8.354,2.94827 l -5.7163,0.32706 v 6.70985 c 0,6.41174 0.05,6.72582 1.1326,7.06933 0.623,0.19771 4.8167,0.2727 9.3194,0.16664 l 8.1868,-0.19284 0.1597,1.37784 c 0.3339,2.87977 -0.4955,3.08495 -12.4713,3.08495 -8.1037,0 -11.0621,-0.16943 -11.4591,-0.65629 z m 32.6279,-0.68686 c -0.7627,-1.16411 -0.8365,-2.35188 -0.5532,-8.91054 0.1798,-4.16206 0.089,-12.12227 -0.2017,-17.68935 -0.528,-10.11082 -0.5273,-10.12301 0.6318,-11.06707 0.7534,-0.61369 1.8189,-0.88985 3.0385,-0.78755 l 1.8783,0.15755 0.3235,14.43845 c 0.1779,7.94115 0.3551,15.77016 0.3938,17.39779 l 0.07,2.95933 2.2314,0.33312 c 1.2272,0.18322 5.5391,0.0939 9.5818,-0.19855 6.6582,-0.4816 7.4123,-0.44846 8.0068,0.35188 0.9137,1.23011 0.8377,1.59931 -0.6324,3.06937 -1.2884,1.28844 -1.2912,1.28872 -12.5887,1.28872 h -11.3 z m 98.2727,0.85516 c -0.5084,-0.82266 -1.25,-30.71012 -0.8203,-33.05999 0.2217,-1.21262 0.8463,-2.53414 1.3878,-2.9367 2.1332,-1.58556 9.2292,-3.09178 14.718,-3.12407 5.1024,-0.03 5.4291,0.0366 7.5665,1.54374 1.2286,0.86631 3.0227,2.72317 3.9867,4.12635 1.5307,2.22794 1.7499,2.95982 1.7298,5.77538 -0.043,5.97346 -2.2576,9.74705 -7.159,12.19712 -1.6809,0.84024 -3.163,1.59518 -3.2936,1.67763 -0.1306,0.0825 2.2912,2.5735 5.3816,5.53566 3.0905,2.96216 5.6191,5.67081 5.6191,6.01924 0,1.14479 -2.0715,2.73363 -3.5641,2.73363 -1.1768,0 -2.8093,-1.34453 -8.3256,-6.85727 l -6.8617,-6.85728 -2.5689,0.16308 -2.5688,0.16309 v 5.82486 c 0,4.16475 -0.2054,6.07263 -0.7206,6.6942 -0.7703,0.92936 -3.9993,1.20257 -4.5069,0.38133 z m 19.3647,-19.40119 c 1.8719,-1.05184 3.9765,-4.85818 3.9765,-7.19186 0,-2.50646 -2.8424,-5.98707 -5.9363,-7.26932 -2.4442,-1.01299 -2.565,-1.01398 -7.4127,-0.0608 -4.7568,0.93528 -4.9388,1.02316 -5.2401,2.52968 -0.4048,2.02402 -0.3916,7.25487 0.027,10.74054 l 0.3301,2.74812 6.3595,-0.31653 c 4.442,-0.22109 6.8228,-0.57683 7.8959,-1.17982 z m 16.1525,19.22241 c -0.6532,-0.78704 -1.1693,-37.3053 -0.5416,-38.32147 0.5228,-0.8464 23.1077,-1.18427 24.632,-0.3685 1.3868,0.74221 1.2673,1.88721 -0.3046,2.9171 -1.0977,0.71924 -2.7501,0.85076 -9.9756,0.794 l -8.6601,-0.068 v 5.78104 c 0,3.17957 -10e-4,5.95824 0,6.17482 0,0.21657 3.129,0.51191 6.9568,0.65629 l 6.9596,0.26252 0.1661,1.44359 c 0.2249,1.95492 -1.2096,2.44327 -8.3825,2.85368 l -5.6971,0.32596 v 6.70985 c 0,6.42739 0.048,6.7251 1.1412,7.07206 0.6277,0.19922 4.8215,0.27421 9.3194,0.16664 l 8.1782,-0.19557 0.1763,1.54921 c 0.3094,2.71917 -0.5281,2.91358 -12.5507,2.91358 -8.1394,0 -10.9998,-0.16708 -11.4145,-0.66677 z M 572.20945,903.14505 v -5.51286 h 52.76599 52.76597 v 5.51286 5.51287 h -52.76597 -52.76599 z m 655.76825,-2.62517 v -5.51287 h 52.766 52.766 v 5.51287 5.51286 h -52.766 -52.766 z M 656.84501,851.32413 c -0.3465,-0.34652 -0.63,-0.95978 -0.63,-1.36279 0,-1.10035 -2.0659,-3.78255 -2.9135,-3.78255 -0.7821,0 -0.9,-0.3371 -2.0191,-5.77538 -0.4994,-2.42677 -0.5447,-3.71609 -0.1569,-4.46279 0.3639,-0.70061 0.5812,-17.88815 0.6531,-51.64528 0.09,-42.20748 0.2272,-50.67481 0.8282,-51.07535 0.3963,-0.26407 3.0831,-0.45764 5.9708,-0.43015 2.8877,0.0275 6.5498,0.0464 8.1381,0.0421 3.8013,-0.0104 4.619,0.83019 5.344,5.49369 0.3689,2.37291 0.5526,17.47941 0.5294,43.53641 -0.02,21.94645 0.1276,40.76391 0.327,41.81657 l 0.3625,1.91395 4.9878,-1.94789 c 2.7433,-1.07134 7.2529,-3.04036 10.0212,-4.37562 l 5.0333,-2.42773 0.3483,-19.80697 c 0.1915,-10.89383 0.3483,-30.26619 0.3483,-43.04969 0,-22.62067 0.027,-23.25148 1.0287,-23.56923 3.9173,-1.24331 18.5857,3.44909 19.1313,6.1201 0.852,4.17039 1.4491,88.67097 0.6403,90.61075 -0.2837,0.68055 -0.9486,1.18132 -1.5685,1.18132 -0.5918,0 -6.047,2.44963 -12.1228,5.44362 -6.0757,2.99398 -11.9918,5.73901 -13.1469,6.10005 -4.3329,1.35435 -13.1986,5.27763 -21.0755,9.32646 -5.48,2.81683 -8.6901,3.4954 -10.0591,2.12639 z m 323.8755,-2.74746 c -1.5027,-1.55043 -1.8441,-2.44694 -2.6584,-6.98016 -0.5138,-2.86068 -1.9951,-8.13873 -3.2918,-11.72899 -1.2967,-3.59025 -3.0147,-8.65413 -3.8176,-11.25305 -1.3922,-4.50611 -1.478,-4.64304 -1.8484,-2.95186 -0.2463,1.12432 -1.2529,2.56565 -2.75,3.93776 -1.6637,1.52486 -2.4573,2.72121 -2.6858,4.04922 -0.1784,1.0367 -0.8969,2.42277 -1.5966,3.08016 -1.038,0.97516 -1.6408,1.13564 -3.2734,0.87154 -1.1007,-0.17805 -3.1825,-0.47456 -4.6264,-0.65892 -1.8094,-0.23105 -3.1599,-0.80109 -4.3461,-1.83442 -0.9465,-0.82456 -2.7185,-2.00711 -3.9378,-2.62788 -1.2192,-0.62077 -3.2108,-1.94187 -4.4257,-2.93577 -1.2149,-0.9939 -2.4205,-1.67637 -2.679,-1.5166 -0.6032,0.37279 -4.2131,10.77014 -6.673,19.21971 -1.0499,3.60642 -2.1859,6.73332 -2.5245,6.94867 -0.3385,0.21534 -1.3694,0.39515 -2.2909,0.39957 -0.9215,0.004 -1.8195,0.2412 -1.9956,0.52617 -0.1761,0.28498 -1.6033,0.89114 -3.1715,1.34703 -1.5682,0.45588 -2.9948,1.06112 -3.1702,1.34498 -0.2062,0.33362 -0.5531,0.32176 -0.9813,-0.0335 -0.8374,-0.69499 -5.4919,-0.91773 -6.7748,-0.32421 -0.8995,0.41611 -0.8902,0.2957 0.1312,-1.70646 0.6045,-1.18479 1.099,-2.84266 1.099,-3.68417 0,-0.8415 0.3713,-2.56384 0.8252,-3.82742 0.4538,-1.26357 1.4107,-4.54193 2.1264,-7.28523 0.7157,-2.74331 1.6185,-6.16916 2.0062,-7.613 0.3878,-1.44385 1.5858,-4.63344 2.6623,-7.08797 2.7609,-6.29557 6.9256,-20.73761 11.5068,-39.90264 1.1934,-4.99248 2.8705,-10.32925 5.2714,-16.77441 0.4786,-1.28477 1.6672,-5.30129 2.6414,-8.92559 3.5281,-13.12666 4.3249,-15.76696 5.0057,-16.58734 1.0335,-1.24531 3.4119,-2.3406 5.0825,-2.3406 0.8127,0 2.3515,-0.46836 3.4196,-1.04079 4.6642,-2.49989 7.4618,0.65049 10.9227,12.30006 1.5284,5.14455 3.5299,10.10255 6.2643,15.5175 0.5104,1.01069 1.2114,3.01895 1.5579,4.46279 0.3465,1.44385 0.9594,3.13389 1.3621,3.75566 0.4027,0.62177 1.3163,2.74816 2.0302,4.72532 0.714,1.97715 1.8903,5.01241 2.614,6.74503 0.7238,1.73261 2.7251,7.75738 4.4474,13.38838 1.7224,5.631 3.9784,12.14268 5.0135,14.47041 1.0351,2.32773 2.3705,6.22612 2.9676,8.66307 0.5972,2.43696 2.0178,6.62379 3.157,9.30405 1.1392,2.68027 2.0713,5.27919 2.0713,5.77539 10e-5,0.49619 0.5872,2.79229 1.3047,5.10244 0.7176,2.31015 1.3082,5.14534 1.3125,6.30041 0.01,1.79051 -0.2777,2.33236 -1.929,3.67525 -2.7469,2.23367 -3.9113,2.84784 -5.4398,2.86908 -0.7364,0.0102 -1.6018,0.28157 -1.9232,0.60297 -0.3214,0.32139 -1.5626,0.65731 -2.7582,0.74648 -1.1956,0.0892 -2.4743,0.41159 -2.8417,0.71649 -0.4962,0.41183 -1.1113,0.097 -2.3922,-1.22456 z m -36.9731,-39.82846 c 0.6094,-0.34894 2.7187,-1.99296 4.6872,-3.65338 4.4015,-3.71257 5.5198,-3.81533 10.8943,-1.00117 2.1194,1.10978 4.5902,2.27459 5.4906,2.58847 1.6059,0.55983 1.6275,0.54563 1.1364,-0.74623 -0.2754,-0.7243 -1.2093,-4.12349 -2.0753,-7.55375 -0.866,-3.43026 -2.5343,-8.90497 -3.7074,-12.16602 -2.5921,-7.20575 -3.7934,-10.75781 -4.9794,-14.72352 -0.4966,-1.66042 -1.0957,-3.01895 -1.3314,-3.01895 -0.5432,0 -3.5023,9.18063 -3.9262,12.18092 -0.1754,1.24165 -0.9964,4.38393 -1.8246,6.98285 -0.8281,2.59892 -2.6007,8.60076 -3.939,13.33742 -1.3383,4.73666 -2.562,8.98944 -2.7192,9.45063 -0.2225,0.6525 -0.1226,0.62984 0.45,-0.10216 0.4047,-0.51737 1.2345,-1.22617 1.844,-1.57511 z m 390.60209,39.36629 c -1.3422,-1.638 -1.8911,-2.82324 -1.894,-4.08992 -0.01,-2.64528 -1.6157,-8.47259 -5.4236,-19.63473 -2.7287,-7.99851 -3.4722,-9.70409 -3.7515,-8.60548 -0.1915,0.75359 -1.5123,2.51671 -2.935,3.91802 -1.7554,1.72905 -2.5868,2.97775 -2.5868,3.88554 0,0.73573 -0.6205,2.00697 -1.379,2.82497 -1.1644,1.25567 -1.6754,1.4439 -3.2815,1.2087 -1.0463,-0.15323 -3.2018,-0.43869 -4.7901,-0.63437 -2.112,-0.26021 -3.3107,-0.74737 -4.4628,-1.81375 -0.8663,-0.80189 -2.6383,-1.9872 -3.9377,-2.63403 -1.2995,-0.64683 -3.2494,-1.97176 -4.3331,-2.94429 -1.0837,-0.97253 -2.189,-1.76824 -2.4562,-1.76824 -0.725,0 -3.8393,8.83052 -7.6184,21.6014 -1.3872,4.68774 -1.8117,5.17537 -4.5055,5.17537 -0.8257,0 -1.6453,0.23316 -1.8214,0.51813 -0.1762,0.28498 -1.6033,0.89114 -3.1715,1.34703 -1.5682,0.45588 -2.9948,1.06112 -3.1703,1.34498 -0.207,0.33499 -0.5468,0.32699 -0.9683,-0.0228 -0.8371,-0.69476 -4.9358,-0.92687 -6.5209,-0.36928 -1.2211,0.42954 -1.2223,0.42576 -0.3027,-0.97777 0.5078,-0.77494 1.207,-2.86455 1.5539,-4.64358 0.6319,-3.24112 2.326,-9.57005 3.747,-13.9978 0.417,-1.29946 0.9678,-3.30772 1.224,-4.46279 0.2563,-1.15508 1.3338,-4.1084 2.3946,-6.56294 2.3269,-5.3841 5.6254,-16.23699 8.5674,-28.18877 1.1949,-4.85439 2.5231,-9.92108 2.9515,-11.25929 0.4284,-1.33822 0.7793,-2.87395 0.7796,-3.41273 6e-4,-0.88108 1.2357,-4.72609 5.0088,-15.59297 0.6851,-1.97321 1.7624,-5.75346 2.394,-8.40056 0.6316,-2.6471 1.4418,-5.40357 1.8004,-6.12549 0.3586,-0.72193 0.9417,-2.71823 1.2959,-4.43624 0.3542,-1.718 0.8942,-3.67299 1.2001,-4.34443 0.732,-1.60641 3.523,-3.29513 5.446,-3.29513 0.8434,0 2.4378,-0.46111 3.5433,-1.0247 4.9027,-2.49957 7.5221,0.47977 11.1035,12.62941 1.0553,3.57994 2.4681,7.57218 3.1396,8.87164 2.2953,4.44212 3.8747,8.13748 4.6582,10.89918 0.4309,1.51863 1.1304,3.40875 1.5546,4.20028 1.6757,3.12733 6.1704,15.56432 8.7741,24.27814 1.51,5.05346 3.6769,11.3145 4.8154,13.91342 1.1384,2.59892 2.7422,7.28334 3.5639,10.40982 0.8217,3.12649 1.7142,5.96168 1.9835,6.30042 1.4399,1.81189 6.0894,18.31856 5.6514,20.06371 -0.4537,1.80786 -4.5796,4.96401 -6.9522,5.31812 -1.1082,0.1654 -2.2511,0.56737 -2.5399,0.89327 -0.2888,0.32589 -1.5603,0.6485 -2.8256,0.7169 -1.2653,0.0684 -2.6003,0.37314 -2.9667,0.6772 -0.4988,0.41401 -1.1406,-0.0263 -2.556,-1.75355 z m -35.4775,-40.20156 c 4.8576,-4.04056 7.6471,-5.83706 9.0632,-5.83706 0.8212,0 3.6935,1.0632 6.3829,2.36266 2.6894,1.29946 5.1214,2.36265 5.4045,2.36265 0.2875,0 0.054,-1.67974 -0.5288,-3.8065 -3.0748,-11.21772 -4.3065,-15.26151 -6.414,-21.05769 -1.2749,-3.50645 -2.839,-8.09921 -3.4757,-10.20612 -0.6367,-2.10691 -1.337,-3.64264 -1.5564,-3.41272 -0.5307,0.55633 -3.4973,10.3602 -3.9394,13.01885 -0.1921,1.15508 -1.3704,5.52599 -2.6184,9.71314 -5.5228,18.52879 -5.9177,20.03672 -5.0292,19.20637 0.4725,-0.44162 1.6926,-1.49623 2.7113,-2.34358 z m -684.92229,40.68229 c -0.86631,-0.38097 -2.38382,-1.84838 -3.37224,-3.26092 -0.98843,-1.41253 -2.99669,-3.88817 -4.4628,-5.50141 -1.46611,-1.61325 -4.71204,-5.62976 -7.21318,-8.92559 -2.50114,-3.29583 -5.77825,-7.39721 -7.28245,-9.11417 -1.50421,-1.71697 -4.03579,-5.14282 -5.62573,-7.613 -3.49666,-5.43252 -8.15416,-11.44746 -13.23479,-17.09209 -5.27692,-5.86272 -5.55459,-6.4778 -4.45947,-9.87821 0.48227,-1.49744 1.59247,-3.63591 2.46712,-4.75216 0.87465,-1.11625 2.04781,-3.24264 2.60703,-4.72532 0.55922,-1.48267 1.55783,-3.28643 2.21915,-4.00835 0.66131,-0.72192 2.11006,-2.95907 3.21945,-4.97144 1.10938,-2.01236 4.04771,-6.38328 6.52961,-9.71314 2.48191,-3.32986 6.77906,-9.4947 9.54922,-13.69965 5.59227,-8.48876 10.73727,-15.13348 12.72758,-16.43759 1.75747,-1.15153 3.78269,-1.07883 5.40068,0.19388 0.73422,0.57753 1.74313,1.05007 2.24202,1.05007 0.49888,0 1.79897,0.70879 2.88908,1.5751 1.0901,0.86631 2.3351,1.5751 2.76665,1.5751 1.32129,0 4.32131,2.13211 4.32131,3.07115 0,1.0438 -1.94323,4.03222 -5.00178,7.69206 -1.20663,1.44385 -3.62454,4.7692 -5.37313,7.38967 -1.74858,2.62047 -3.78864,5.16378 -4.53345,5.6518 -0.74481,0.48802 -1.80816,1.77714 -2.363,2.86471 -0.55484,1.08757 -2.2957,3.62397 -3.86858,5.63644 -1.57288,2.01248 -3.63558,5.07664 -4.58377,6.80925 -0.94819,1.73262 -3.09833,5.2766 -4.77809,7.87552 -1.67975,2.59893 -3.41608,5.59693 -3.8585,6.66224 -0.79945,1.92498 -0.79256,1.9525 1.11623,4.4628 1.05634,1.38922 4.18403,5.15748 6.9504,8.37389 2.76637,3.21641 6.60038,7.82359 8.52002,10.23817 1.91964,2.41459 4.93156,6.01947 6.69315,8.01085 3.11377,3.51994 10.53101,13.61317 15.4693,21.05033 1.55033,2.33481 2.43594,4.24462 2.43469,5.25035 -0.002,1.3883 -0.30529,1.70775 -2.49392,2.62443 -1.839,0.77025 -3.50911,1.01741 -6.37393,0.9433 -2.42397,-0.0627 -4.56789,0.18617 -5.70824,0.66264 -1.00444,0.41968 -1.85647,0.75381 -1.8934,0.74251 -0.0369,-0.0113 -0.77593,-0.33225 -1.64224,-0.71322 z m 167.4338,-0.0158 c -0.895,-0.38964 -2.1885,-1.62078 -2.8743,-2.73588 -0.6859,-1.1151 -2.5525,-3.47166 -4.1481,-5.23681 -1.5956,-1.76514 -4.9495,-5.89979 -7.4531,-9.1881 -2.5036,-3.28832 -5.8877,-7.51448 -7.5201,-9.39148 -1.6325,-1.877 -4.6798,-6.01165 -6.772,-9.18811 -3.4341,-5.21403 -6.2997,-8.83412 -14.4743,-18.28574 -2.1542,-2.49066 -2.6442,-3.41832 -2.6349,-4.98782 0.014,-2.30509 1.4543,-5.65241 3.5963,-8.35717 0.8588,-1.08431 1.8149,-2.93809 2.1248,-4.1195 0.3099,-1.18142 1.0379,-2.5774 1.6177,-3.10219 0.5799,-0.52479 2.1551,-2.8659 3.5005,-5.20247 1.3453,-2.33656 4.7225,-7.31975 7.5047,-11.07375 2.7823,-3.75399 6.1056,-8.47931 7.3852,-10.50069 3.9612,-6.25729 9.4843,-13.79918 12.1145,-16.54243 2.8453,-2.96759 4.8263,-3.40266 7.1545,-1.57126 0.7342,0.57753 1.7575,1.05007 2.274,1.05007 0.5164,0 1.6624,0.60875 2.5466,1.35278 0.8843,0.74403 2.4108,1.57451 3.3923,1.84552 0.9815,0.27101 2.4115,0.98588 3.1777,1.5886 l 1.3932,1.09586 -1.6407,2.90716 c -0.9024,1.59894 -2.4413,3.73146 -3.4197,4.73894 -0.9785,1.00749 -3.3355,4.14752 -5.2379,6.97785 -1.9023,2.83034 -4.2707,5.76538 -5.2631,6.52233 -0.9924,0.75695 -1.8044,1.69976 -1.8044,2.09515 0,0.39539 -1.8311,3.16282 -4.069,6.14985 -2.238,2.98703 -4.8722,6.96335 -5.8538,8.83628 -0.9817,1.87292 -2.5418,4.46851 -3.4671,5.76797 -2.7589,3.87477 -4.4615,7.10005 -4.4588,8.44668 0,0.82651 1.5564,3.09034 4.4758,6.5168 2.4604,2.88769 6.2838,7.49487 8.4965,10.23818 2.2127,2.74331 6.4411,7.82302 9.3964,11.28824 5.1298,6.01484 12.5579,16.02004 17.0249,22.93125 1.2866,1.99062 2.0809,3.84141 2.0797,4.84573 0,1.43908 -0.2814,1.73988 -2.4441,2.62945 -1.676,0.68938 -3.8577,1.02839 -6.9547,1.08068 -2.482,0.0419 -5.0287,0.35775 -5.6595,0.70187 -1.3606,0.74233 -1.0913,0.75306 -3.1057,-0.12384 z m 325.06629,-0.95683 c -0.4312,-0.9385 -1.0101,-2.06076 -1.2863,-2.49392 -1.8692,-2.93057 -2.9918,-7.04333 -2.4796,-9.08396 0.3936,-1.5683 3.6293,-3.1543 8.7361,-4.28214 2.1658,-0.47831 5.1191,-1.20982 6.563,-1.62557 l 2.6251,-0.75592 -0.3711,-7.74598 c -0.2042,-4.2603 -0.6204,-12.8257 -0.925,-19.03423 -0.3046,-6.20854 -0.551,-19.76581 -0.5476,-30.12728 l 0.01,-18.83904 -3.8065,0.31021 c -2.0936,0.17062 -4.8223,0.5265 -6.0639,0.79084 l -2.2573,0.48063 -1.8117,-2.83212 c -0.9964,-1.55767 -1.8117,-3.0233 -1.8117,-3.25696 0,-0.23365 -0.7408,-1.54327 -1.6463,-2.91026 -1.4455,-2.18238 -1.5671,-2.63333 -0.9972,-3.6983 0.9893,-1.84844 3.7949,-3.17138 13.4719,-6.35245 8.4036,-2.7625 13.54,-3.98775 16.4734,-3.92962 0.7219,0.0143 4.9126,-0.72587 9.3125,-1.64484 7.4032,-1.54624 8.07,-1.60742 8.9398,-0.8203 0.9991,0.90422 2.2525,4.46857 3.3231,9.45047 0.6011,2.79722 0.5696,3.15073 -0.3987,4.46279 -0.9978,1.35217 -4.3553,2.5292 -11.4113,4.00045 l -1.5229,0.31754 0.3267,31.10562 c 0.2917,27.76383 0.9179,44.70543 1.6806,45.46822 0.1449,0.14481 1.8553,-0.25762 3.8011,-0.89429 5.3876,-1.76284 7.3161,-1.96207 8.5124,-0.87939 1.501,1.35835 2.3449,6.53836 2.16,13.25836 -0.039,1.43277 -0.3751,1.86324 -2.1647,2.77623 -2.6172,1.3352 -12.6726,3.92 -26.4963,6.81103 -5.7754,1.20784 -11.7184,2.53008 -13.2067,2.9383 -4.4406,1.21804 -5.8149,1.02108 -6.7271,-0.96412 z m -233.70609,0.30433 c -0.1703,-0.52835 -0.5098,-1.43316 -0.7543,-2.01069 -0.5319,-1.25622 -1.3573,-25.84551 -1.1543,-34.38977 0.079,-3.32085 0.01,-6.82154 -0.1617,-7.77931 -0.285,-1.62719 -0.4098,-1.71839 -1.9029,-1.39045 -0.8789,0.19303 -2.9326,0.96282 -4.5637,1.71063 -1.6312,0.74781 -4.3834,1.76839 -6.116,2.26794 -5.4648,1.57563 -16.601,5.56864 -17.1994,6.16706 -0.9897,0.98963 -1.3611,5.71514 -1.409,17.92537 -0.025,6.49731 -0.2551,12.14293 -0.5103,12.54583 -0.3163,0.4996 -0.9809,0.62914 -2.0898,0.40736 -1.1909,-0.23817 -2.294,0.0338 -4.1222,1.01614 -1.9109,1.02685 -3.0193,1.28499 -4.7275,1.10099 -1.2273,-0.1322 -2.2314,-0.0442 -2.2314,0.1955 0,0.50356 -3.75,1.63554 -4.1368,1.24874 -1.6232,-1.62312 -2.9131,-23.49681 -2.9399,-49.85426 -0.02,-19.22962 0.6622,-59.82015 1.0197,-60.70763 0.2198,-0.54549 1.5174,-1.08041 3.5942,-1.48168 1.7877,-0.3454 3.6298,-0.82803 4.0937,-1.07253 0.4639,-0.2445 2.7439,-0.61033 5.0668,-0.81295 5.0963,-0.44456 4.9825,-0.57129 5.9103,6.5835 0.7474,5.76366 0.9897,34.95602 0.3669,44.20517 -0.5319,7.89894 -0.3736,8.04019 6.322,5.64335 2.5257,-0.90412 6.1279,-2.11939 8.0049,-2.7006 1.877,-0.58121 6.1298,-2.29616 9.4506,-3.81101 3.3208,-1.51484 6.4235,-2.88917 6.8949,-3.05406 0.7782,-0.27224 0.8326,-2.07728 0.5927,-19.63503 -0.3347,-24.48921 0.1004,-27.30674 4.2392,-27.44983 0.9139,-0.0316 4.3738,-0.1555 7.6887,-0.27533 4.7871,-0.17305 6.202,-0.0595 6.8775,0.55177 0.7646,0.69191 0.8863,4.99709 1.2049,42.63142 0.195,23.02399 0.603,47.2959 0.9067,53.93759 0.4936,10.79447 0.4612,12.29056 -0.3054,14.09985 -0.7774,1.83487 -1.0099,2.0017 -2.4872,1.78488 -1.0951,-0.16073 -2.3338,0.16582 -3.7764,0.99553 -1.7111,0.98414 -2.6006,1.16906 -4.383,0.91123 -1.2348,-0.17863 -2.5279,-0.0885 -2.8877,0.20125 -0.3583,0.28861 -1.4195,0.68897 -2.3583,0.88969 -1.3853,0.29622 -1.7651,0.18402 -2.0165,-0.59566 z m 363.43799,-2.40447 c -1.3881,-1.51604 -4.8851,-5.94602 -7.7709,-9.8444 -2.8859,-3.89838 -6.1397,-8.03303 -7.2308,-9.18811 -1.091,-1.15507 -2.934,-3.3996 -4.0955,-4.98783 -1.1615,-1.58823 -2.9156,-3.80581 -3.898,-4.92797 l -1.7863,-2.04027 -1.5556,1.52403 c -0.8556,0.83822 -3.0323,2.7959 -4.8371,4.35041 l -3.2815,2.82638 v 9.03609 c 0,13.29938 -0.4853,15.51248 -2.8329,12.9184 -0.8771,-0.96914 -0.9388,-0.96867 -2.9914,0.023 -1.1526,0.55692 -3.5624,1.2298 -5.3549,1.49529 -1.7926,0.2655 -3.9689,0.62782 -4.8363,0.80515 -1.5636,0.31971 -1.5871,0.28992 -2.7773,-3.52467 -1.1263,-3.60975 -1.2206,-5.02946 -1.5279,-23.01087 -0.4062,-23.76755 -0.4448,-20.00621 0.3638,-35.43984 1.3231,-25.251 1.3147,-26.06769 -0.4467,-43.57788 -0.2033,-2.02138 -0.2438,-5.09283 -0.09,-6.82545 l 0.2797,-3.1502 2.6252,-0.14982 c 5.6691,-0.32353 7.6866,-0.53632 7.9934,-0.84306 0.1758,-0.17584 1.6388,-0.30214 3.2511,-0.28066 3.0971,0.0412 3.8829,0.48209 11.428,6.41132 3.7012,2.90858 9.2895,6.52527 12.9636,8.38989 1.7691,0.8978 5.246,2.96395 7.7266,4.59144 2.4806,1.62749 6.4323,3.73391 8.7816,4.68094 2.3494,0.94702 5.2814,2.60147 6.5157,3.67656 1.2342,1.07508 3.0119,2.40122 3.9504,2.94698 1.8579,1.08042 1.9671,1.61406 1.7138,8.3789 -0.1509,4.03314 -0.7308,5.09262 -5.9836,10.93141 -2.3847,2.6508 -4.9642,5.75359 -5.7323,6.89509 -0.7681,1.1415 -3.2012,3.9082 -5.4069,6.14822 -3.3864,3.43916 -3.9601,4.27301 -3.6873,5.35983 0.5339,2.1274 5.169,8.60328 11.015,15.38968 3.0307,3.51818 6.3634,7.65283 7.406,9.1881 3.1821,4.68605 5.5385,7.9367 7.4158,10.23026 2.2408,2.73766 2.3456,4.71636 0.3475,6.56093 -1.6109,1.48703 -5.7713,3.58888 -7.104,3.58888 -0.4762,0 -1.1136,0.46287 -1.4163,1.02859 -0.5194,0.97045 -4.6853,3.17169 -6.0025,3.17169 -0.334,0 -1.743,-1.24039 -3.1312,-2.75643 z m -24.9557,-56.08885 c 8.7086,-9.24127 14.649,-15.77926 16.1343,-17.75724 1.4155,-1.88519 1.1409,-2.37836 -2.3032,-4.1361 -1.137,-0.58028 -2.5173,-1.55272 -3.0674,-2.16098 -0.5501,-0.60827 -1.2241,-1.10594 -1.4978,-1.10594 -0.2737,0 -4.0285,-1.53573 -8.3439,-3.41273 -4.3155,-1.877 -8.0715,-3.41272 -8.3466,-3.41272 -0.2981,0 -0.513,3.97833 -0.5316,9.8444 -0.017,5.41442 -0.281,11.02572 -0.5862,12.46957 -0.3052,1.44384 -0.6626,6.25645 -0.7941,10.69467 l -0.2393,8.0695 1.5312,-1.09025 c 0.8421,-0.59963 4.4622,-4.20061 8.0446,-8.00218 z m -170.8733,56.8279 c -0.8952,-0.98917 -1.8183,-3.56545 -4.2628,-11.89604 -0.7626,-2.59892 -1.9582,-6.4973 -2.657,-8.66307 -0.6987,-2.16577 -1.4848,-4.88282 -1.7469,-6.0379 -1.2744,-5.61695 -4.0189,-15.8923 -5.8197,-21.78894 -1.1023,-3.60961 -2.4166,-8.45305 -2.9206,-10.76321 -0.504,-2.31015 -1.5728,-6.14185 -2.3751,-8.5149 -0.8022,-2.37304 -1.6256,-5.30264 -1.8296,-6.51021 -0.204,-1.20758 -0.9142,-3.75504 -1.5781,-5.66103 -0.6639,-1.906 -2.2847,-7.36383 -3.6017,-12.12852 -1.317,-4.76469 -2.9916,-9.82538 -3.7213,-11.24597 -1.0072,-1.96086 -1.3267,-3.38335 -1.3267,-5.90664 v -3.32374 l 2.2314,-0.0762 c 1.2273,-0.0419 3.0584,-0.14272 4.069,-0.22405 1.0107,-0.0813 3.8459,-0.22424 6.3005,-0.31759 l 4.4628,-0.16972 1.492,2.78417 c 1.5204,2.83718 4.2725,11.30963 7.1967,22.15497 0.8954,3.32085 2.2962,8.16429 3.1129,10.76321 0.8167,2.59892 1.752,6.02477 2.0786,7.613 0.3265,1.58823 1.0485,4.30529 1.6043,6.0379 0.5559,1.73262 1.8955,6.517 2.9767,10.63195 1.0813,4.11496 2.1053,7.48175 2.2755,7.48175 0.1701,0 0.6033,-1.12226 0.9626,-2.49392 0.3592,-1.37165 1.4673,-5.09283 2.4623,-8.26929 0.995,-3.17646 2.6508,-8.7287 3.6796,-12.33832 1.0288,-3.60961 2.4779,-8.33492 3.2202,-10.50069 0.7423,-2.16577 1.9064,-5.94602 2.5869,-8.40055 0.6805,-2.45454 1.8197,-6.11666 2.5315,-8.13804 0.7118,-2.02138 1.8032,-5.3291 2.4253,-7.35049 0.6221,-2.02138 2.0546,-5.6384 3.1832,-8.03782 1.1286,-2.39942 2.052,-4.54826 2.052,-4.7752 0,-0.22693 0.4529,-0.82246 1.0064,-1.32339 0.8029,-0.72658 1.2276,-0.79239 2.1002,-0.32541 0.6015,0.32194 1.0937,0.78239 1.0937,1.02322 0,0.24082 0.8016,0.56794 1.7813,0.72692 0.9797,0.15899 2.769,0.91261 3.9763,1.67471 1.2073,0.76211 2.473,1.28669 2.8128,1.16573 0.3397,-0.12096 1.6951,0.31891 3.012,0.97749 l 2.3942,1.1974 -0.3474,3.32314 c -0.2174,2.08023 -0.9383,4.50138 -1.9275,6.47335 -0.8691,1.73262 -2.2335,5.15847 -3.032,7.613 -0.7986,2.45454 -2.2241,6.58919 -3.168,9.18811 -0.9439,2.59892 -2.7009,8.2693 -3.9046,12.60083 -1.2036,4.33154 -4.5708,15.55415 -7.4825,24.93915 -6.6065,21.29374 -9.8558,31.9329 -10.2355,33.51384 -0.1617,0.67331 -0.8693,1.48637 -1.5726,1.80679 -1.1817,0.5384 -1.2519,0.77704 -0.926,3.14656 0.3079,2.23854 0.1968,2.7299 -0.8755,3.87125 -1.3782,1.46706 -3.5597,2.56833 -6.1004,3.07962 -0.9385,0.18886 -1.7064,0.56088 -1.7064,0.8267 0,0.26583 -0.4586,0.48332 -1.0191,0.48332 -0.5605,0 -1.1651,0.23627 -1.3435,0.52504 -0.5308,0.85883 -2.6595,0.59733 -3.6004,-0.44228 z M 612.28009,794.75938 c -0.84107,-0.36594 -1.24071,-1.13903 -1.50709,-2.91542 -0.19939,-1.32958 -0.21797,-2.56196 -0.0413,-2.73863 0.17667,-0.17667 0.0611,-0.63466 -0.25686,-1.01776 -0.9482,-1.14251 -1.27294,-9.42866 -0.40349,-10.29543 0.4146,-0.41332 3.03798,-1.00536 6.09212,-1.37486 8.15441,-0.98657 8.32349,-0.79267 8.80486,10.09707 0.30385,6.87369 0.27806,7.11952 -0.80796,7.70074 -1.45749,0.78003 -10.39711,1.18959 -11.88027,0.54429 z m 430.98661,-39.77405 c -1.0241,-0.13776 -1.8476,-0.59597 -2.0072,-1.11689 -0.1489,-0.48581 -0.4936,-1.29962 -0.7659,-1.80845 -0.2723,-0.50884 -0.3468,-1.51603 -0.1656,-2.23822 0.1813,-0.72218 0.069,-1.62719 -0.2497,-2.01113 -0.932,-1.1229 -1.1902,-9.11178 -0.3226,-9.97936 0.3975,-0.39757 2.5184,-0.9899 4.7129,-1.31631 8.6815,-1.29121 9.3088,-0.93738 9.8022,5.52898 0.1947,2.55243 0.3746,6.24142 0.3998,8.19776 0.042,3.22709 -0.064,3.59845 -1.1357,4.00422 -1.518,0.57472 -8.0147,1.04254 -10.2682,0.7394 z M 940.52121,676.02084 c -78.9355,-6.38686 -149.6493,-47.85861 -193.7401,-113.62328 -15.3911,-22.95702 -26.078,-45.88733 -33.6441,-72.18839 -10.5164,-36.55673 -12.6983,-76.6086 -6.2526,-114.77435 10.8891,-64.47555 47.1426,-123.61891 99.753,-162.73533 13.1852,-9.80333 25.9609,-17.60448 40.9394,-24.99862 29.9678,-14.79361 61.7607,-23.24536 96.6197,-25.68514 10.9412,-0.76578 33.1783,-0.34886 43.7818,0.82085 28.20029,3.11088 56.35209,10.87855 81.43889,22.47067 6.5663,3.03415 5.8732,-0.36545 6.9093,33.88817 0.4951,16.36605 0.915,30.00846 0.9332,30.31645 0.018,0.308 1.6827,2.633 3.699,5.16666 10.0974,12.68853 22.5715,33.6488 30.4944,51.23961 9.9979,22.19795 16.0212,41.68447 21.4546,69.41028 4.667,23.81461 6.6665,40.68918 6.0843,51.34769 -1.9689,36.04755 -12.5202,65.52621 -33.3567,93.19365 -7.7672,10.31355 -18.503,21.4891 -27.2303,28.34565 l -3.2124,2.52378 0.015,3.72905 c 0.059,14.54413 -1.7505,93.36722 -2.1814,95.00449 -0.4939,1.87691 -0.8393,2.16175 -4.8892,4.03282 -26.5131,12.2491 -57.2295,20.15185 -87.65829,22.55283 -7.7769,0.61363 -32.1933,0.5907 -39.9577,-0.0375 z m 38.7213,-8.17506 5.1191,-0.32888 -0.012,-6.35662 c -0.01,-3.49614 -0.356,-20.76882 -0.7767,-38.38373 -0.4207,-17.61491 -0.7697,-33.26751 -0.7757,-34.78355 l -0.011,-2.75643 -8.0067,-0.004 c -7.3837,-0.004 -16.888,-0.58702 -22.314,-1.36848 l -2.2314,-0.32136 v 42.29746 42.29747 l 2.7564,0.22947 c 3.204,0.26672 18.8136,-0.043 26.2518,-0.52086 z m -37.4087,-42.95909 v -42.78032 l -1.4438,-0.32953 c -20.1356,-4.59557 -34.8815,-10.40895 -51.0596,-20.12972 -17.3438,-10.4211 -35.6494,-26.79098 -46.9335,-41.97033 -7.1379,-9.60193 -16.2152,-25.83073 -20.8465,-37.27024 -1.6392,-4.04871 -1.9377,-4.44987 -3.8816,-5.21613 -1.1582,-0.45655 -5.1255,-2.33552 -8.8163,-4.17548 -12.5888,-6.27585 -22.0834,-13.64467 -25.9533,-20.14254 -2.1197,-3.5591 -3.1327,-7.65628 -3.5832,-14.4932 l -0.3532,-5.36054 -3.3661,-2.47133 c -5.527,-4.05777 -9.0338,-9.08021 -10.4064,-14.90406 -1.1811,-5.01125 -1.0362,-7.35524 0.9734,-15.74393 0.2874,-1.1997 -0.057,-1.51578 -4.0012,-3.67524 -4.8456,-2.65273 -10.3248,-7.46688 -12.2635,-10.77495 -2.0299,-3.46375 -3.941,-9.61755 -4.2735,-13.76069 -0.3348,-4.17169 0.5816,-7.6196 2.4823,-9.33974 1.0037,-0.90835 0.9576,-0.99726 -2.3144,-4.46576 -3.737,-3.96142 -5.6691,-7.59238 -7.1766,-13.48682 -2.5294,-9.88974 0.1826,-15.93747 7.7071,-17.18705 3.6142,-0.6002 7.5447,0.47583 28.835,7.89404 19.0747,6.64621 21.0583,7.22782 29.4392,8.63163 7.6055,1.27391 20.5441,3.13608 21.7899,3.13608 0.2024,0 1.4857,-2.06732 2.8517,-4.59405 12.4497,-23.02744 31.3934,-43.91186 52.9504,-58.37504 9.5995,-6.44053 21.63,-12.9021 29.8374,-16.02565 2.802,-1.06635 2.8271,-1.86059 0.059,-1.86059 -2.5661,0 -5.3639,-1.44198 -6.54,-3.37071 -1.3125,-2.15225 -1.2857,-5.8512 0.058,-8.05558 1.318,-2.16184 2.9379,-2.88614 10.7922,-4.8255 15.3198,-3.78275 23.6175,-7.6729 41.4503,-19.43287 13.252,-8.73907 19.4026,-12.12244 26.1194,-14.36792 14.2223,-4.75464 30.15089,-4.40135 46.86049,1.03932 10.4622,3.40655 23.6006,11.15036 33.0771,19.49581 l 4.7253,4.16132 -0.6093,-19.74283 c -0.3351,-10.85855 -0.6304,-21.46563 -0.6562,-23.57128 l -0.047,-3.82846 -3.544,-1.60497 c -26.2011,-11.86571 -55.4013,-19.28015 -84.64309,-21.49228 -10.4278,-0.78886 -36.1267,-0.35016 -45.6968,0.78009 -26.4794,3.12728 -50.194,9.56605 -73.9524,20.07894 -42.2976,18.71635 -79.6812,50.21403 -106.1509,89.43789 -8.1037,12.00846 -18.8529,32.54786 -24.3174,46.46556 -27.9643,71.223 -22.2391,150.20341 15.6829,216.34827 23.8906,41.67098 61.3066,76.94595 104.5916,98.60675 20.4997,10.25849 45.0897,18.47082 67.0826,22.40356 7.3795,1.31959 20.0384,2.99323 23.2328,3.07163 l 2.2314,0.0548 z m 61.95409,39.84291 c 18.6917,-3.13866 40.8262,-9.82624 57.9466,-17.50763 l 3.4825,-1.5625 0.012,-3.0409 c 0.01,-1.6725 0.3556,-18.51631 0.7755,-37.43068 0.42,-18.91437 0.769,-37.50711 0.7756,-41.31719 l 0.012,-6.92743 -5.3816,3.42831 c -7.206,4.59051 -21.2278,11.51688 -29.4296,14.53734 -11.5663,4.25952 -24.4257,7.46231 -35.41219,8.81985 l -5.3816,0.66497 0.011,6.06554 c 0.01,3.33604 0.3555,20.35961 0.7768,37.83013 0.4214,17.47053 0.7709,33.23535 0.7769,35.03294 l 0.011,3.26834 1.4438,-0.24728 c 0.7941,-0.13601 5.106,-0.86222 9.58189,-1.61381 z m -12.85939,-88.66677 c 53.54769,-5.98307 99.32369,-37.80036 123.29509,-85.69803 10.9623,-21.90399 16.2818,-44.15781 16.2909,-68.15149 0,-11.69389 -0.8886,-19.5191 -4.1641,-36.4899 -0.7525,-3.89839 -1.6822,-8.74183 -2.0662,-10.76321 -4.7233,-24.86794 -11.9241,-47.55653 -21.5524,-67.90894 l -2.9667,-6.27094 -4.542,4.56564 c -9.2018,9.24972 -21.5101,15.63716 -38.9965,20.23737 -7.0363,1.85107 -19.0849,4.06267 -25.8421,4.74349 -3.3674,0.33928 -3.5717,0.43322 -3.2544,1.49631 1.8511,6.20315 2.4712,11.10481 2.5681,20.29806 0.074,7.01941 0.2999,10.07716 0.8149,11.02573 0.3919,0.72192 3.9424,4.6203 7.89,8.66307 3.9476,4.04276 8.2552,8.76808 9.5723,10.50069 8.9743,11.80464 14.8872,24.51714 17.8568,38.39152 1.0646,4.97399 1.2201,7.13493 1.2045,16.73712 -0.016,10.03757 -0.1414,11.54791 -1.397,16.85212 -3.521,14.87515 -10.9612,28.28624 -21.3804,38.53903 -12.3869,12.18891 -27.1155,18.58204 -48.60939,21.0994 -7.2468,0.84874 -38.7431,0.82538 -53.8161,-0.0399 -24.142,-1.38593 -46.9721,-3.48277 -78.1867,-7.18111 -10.8049,-1.28018 -19.8421,-2.3276 -20.0826,-2.3276 -1.3103,0 0.1687,2.6411 5.4392,9.71314 11.2734,15.12671 28.5428,30.81928 44.2983,40.2535 20.2251,12.11058 42.4048,19.54246 65.3329,21.8914 7.3292,0.75087 24.8512,0.65513 32.2936,-0.17645 z m 7.7684,-70.87771 c 17.86789,-2.68477 28.64269,-7.70089 39.50809,-18.39254 12.2629,-12.06697 19.0916,-26.48009 20.7023,-43.69626 1.5138,-16.17898 -3.3868,-34.44567 -13.3495,-49.75991 -3.751,-5.76582 -7.3048,-9.93849 -14.7563,-17.32615 -4.7098,-4.66936 -6.7437,-7.10113 -7.8565,-9.39344 -1.4849,-3.05853 -1.5025,-3.20788 -1.582,-13.38838 -0.085,-10.86726 -0.5408,-14.0638 -3.0416,-21.32109 -3.7356,-10.84017 -9.2203,-19.53074 -18.178,-28.80278 -14.57019,-15.0815 -31.93119,-24.27279 -59.31799,-31.40429 l -8.0982,-2.10876 -3.9785,1.16086 c -17.0071,4.96236 -37.6651,15.90761 -52.5442,27.8395 -14.5663,11.68105 -29.8378,29.71746 -38.2755,45.20529 l -2.187,4.0143 7.2366,0.38994 c 14.2283,0.76666 22.0293,-9.3e-4 45.5642,-4.48336 17.8427,-3.39828 24.1809,-4.19735 36.2274,-4.56722 26.5452,-0.81505 53.9947,4.1874 77.55779,14.13427 7.7659,3.27828 8.8104,4.06882 8.8104,6.66834 0,2.56292 -0.7012,3.1558 -7.108,6.00998 -15.57909,6.94039 -30.41759,14.59566 -54.41999,28.0757 -24.3877,13.69634 -30.172,16.23219 -39.8604,17.47467 -11.4855,1.47296 -24.2999,-3.20239 -31.3707,-11.44563 -10.0538,-11.72072 -9.7694,-29.29249 0.6433,-39.74526 5.4445,-5.46553 11.0322,-7.67668 19.3991,-7.67668 11.3362,0 20.2698,5.27144 24.6579,14.54997 1.5095,3.19186 1.6856,4.05965 1.688,8.31627 0,4.44116 -0.1272,5.01511 -1.978,8.76003 -2.176,4.4028 -5.1164,7.41045 -9.2224,9.43313 -2.0039,0.98718 -3.3049,1.20589 -7.1732,1.20589 -4.1584,0 -5.0998,-0.18389 -7.8469,-1.53269 -6.566,-3.22386 -10.8845,-9.76247 -10.8845,-16.48024 0,-1.97339 0.3457,-4.41533 0.7682,-5.42654 1.1119,-2.66104 3.7598,-5.46592 6.3388,-6.71435 2.6532,-1.28441 7.5495,-1.45892 9.6816,-0.34506 1.6472,0.86057 3.898,3.1805 4.8188,4.96703 0.9076,1.76081 0.8023,6.95669 -0.1795,8.85526 -2.4784,4.79267 -7.6167,5.78808 -9.6987,1.87888 -0.9312,-1.74836 -0.752,-2.59361 0.9643,-4.54835 1.8233,-2.07659 1.8318,-2.11118 0.78,-3.16298 -0.6296,-0.62963 -1.1237,-0.68057 -2.3738,-0.24479 -4.4508,1.55157 -3.2572,9.04072 2.0328,12.75486 1.9848,1.39353 2.7251,1.59842 5.7754,1.59842 4.2558,0 6.0666,-1.13119 8.2938,-5.18108 3.8227,-6.95119 0.4126,-14.95163 -8.0348,-18.85032 -2.1358,-0.98573 -3.4463,-1.17027 -8.311,-1.17027 -5.2628,0 -6.0411,0.1305 -8.7695,1.47029 -9.2737,4.55401 -12.9689,16.72702 -8.1966,27.00168 1.7162,3.69472 6.8132,8.55961 11.1167,10.6104 5.4448,2.59466 10.9724,3.52556 16.3325,2.75058 8.16,-1.17982 14.4317,-3.96051 33.3573,-14.78954 15.9002,-9.09796 27.0964,-15.09085 41.3821,-22.15029 7.0223,-3.47012 12.6927,-6.37652 12.6009,-6.45865 -0.092,-0.0821 -3.2384,-1.21201 -6.9924,-2.51083 -18.4752,-6.39208 -34.3539,-9.19191 -54.9556,-9.69012 -16.8839,-0.40829 -23.9154,0.33261 -48.4862,5.10897 -5.7809,1.12375 -12.7507,2.31649 -15.4886,2.65055 -6.8585,0.83684 -6.6656,0.71567 -4.7011,2.95312 2.3608,2.68882 3.136,4.84783 3.136,8.73401 0,7.66965 -3.8137,12.57882 -12.7568,16.42091 -2.08,0.89359 -3.7818,1.9086 -3.7818,2.25557 0,0.34696 2.1216,2.21476 4.7147,4.15066 10.3297,7.71169 12.7376,15.29097 7.1171,22.40251 -1.4254,1.8035 -1.9025,2.79659 -1.5485,3.22314 1.4903,1.7956 12.522,2.71558 23.0564,1.92276 3.3209,-0.24993 7.1909,-0.27481 8.6002,-0.0553 7.2231,1.12515 10.7309,8.30533 7.5026,15.35695 -2.7405,5.98608 -7.6997,12.45983 -15.3543,20.04345 -4.2147,4.17569 -7.9901,8.40438 -8.6719,9.71314 -3.6473,7.00118 1.2308,16.57931 10.8111,21.22769 3.3478,1.62434 4.5407,1.87719 13.3884,2.83783 13.8634,1.50521 26.0036,2.54044 37.9362,3.23495 12.1088,0.70475 42.8406,0.36861 50.2696,-0.54983 9.8202,-1.21407 22.57649,-4.17076 22.57649,-5.23282 0,-0.2444 -0.886,-0.60778 -1.9689,-0.8075 -3.197,-0.58966 -8.7768,-3.13791 -16.28399,-7.43684 -14.5499,-8.33184 -19.1826,-8.77259 -29.0115,-2.76016 -6.2547,3.82603 -14.217,7.55083 -19.1525,8.9596 -5.3994,1.54118 -14.9982,1.67594 -20.2138,0.28377 -8.1414,-2.17315 -15.1498,-6.94548 -19.2898,-13.13525 -3.4367,-5.13822 -4.8863,-9.39157 -5.2247,-15.32931 -0.4986,-8.74865 1.9872,-15.60834 7.7545,-21.39924 5.1222,-5.14309 12.6157,-8.24698 19.9102,-8.24698 9.5722,0 19.8916,6.03084 23.9064,13.97133 1.428,2.82428 1.5545,3.52201 1.5561,8.58692 0,5.10568 -0.1214,5.77272 -1.665,9.03097 -3.3031,6.97232 -8.4627,10.51533 -15.7821,10.83726 -3.9375,0.17319 -4.6291,0.0469 -7.7575,-1.41711 -8.7043,-4.07324 -13.9081,-14.37733 -11.0459,-21.87202 1.7084,-4.4735 7.2449,-8.15711 12.2018,-8.11833 5.0791,0.0397 9.5986,5.10612 9.609,10.77169 0.01,3.58054 -4.0587,8.64306 -6.9406,8.64306 -0.557,0 -1.7034,-0.69062 -2.5475,-1.53471 -1.9667,-1.9667 -2.0021,-3.95787 -0.1056,-5.9374 1.1417,-1.19162 1.3152,-1.67265 0.8625,-2.39138 -0.8756,-1.39047 -2.0004,-1.33951 -3.7967,0.17201 -1.2582,1.05874 -1.6451,1.81037 -1.6451,3.19614 0,2.28244 1.4954,5.21795 3.7605,7.38195 2.156,2.05976 4.002,2.78864 7.063,2.78864 9.4595,0 13.2198,-13.81666 5.5848,-20.52033 -2.6191,-2.29961 -7.5977,-4.55455 -10.9922,-4.97866 -3.4732,-0.43395 -8.4421,0.47567 -11.7472,2.1505 -1.3356,0.67679 -3.6455,2.56232 -5.1332,4.19008 -3.622,3.96307 -5.0817,8.48395 -4.6715,14.46859 0.8073,11.77798 10.5822,20.46336 24.0156,21.33879 7.5856,0.49435 14.992,-1.96505 26.6136,-8.83748 7.5983,-4.49321 10.0146,-5.33878 15.3849,-5.38376 7.227,-0.0605 10.7046,1.25925 25.98919,9.86306 9.4122,5.29822 15.8,6.59126 22.3014,4.51433 3.629,-1.15933 5.4198,-0.96963 6.5877,0.69784 1.3264,1.89366 0.9383,4.06621 -1.2107,6.77796 -5.027,6.34342 -14.0365,10.68206 -27.5151,13.25034 -17.82899,3.39723 -48.36679,3.7859 -80.75609,1.02782 -32.2712,-2.74802 -73.6463,-9.06357 -87.1332,-13.30012 -1.8646,-0.58571 -3.4583,-0.99681 -3.5416,-0.91355 -0.3888,0.38875 7.292,15.03219 7.8847,15.03219 0.371,0 0.97,-0.29534 1.331,-0.6563 1.0722,-1.07224 6.4116,-0.71459 27.9055,1.8692 30.948,3.72026 57.2175,6.06151 80.3303,7.15938 14.9322,0.70929 43.7121,0.2864 50.5627,-0.74295 z m 24.53199,-38.3686 c -1.5802,-0.44053 -4.8289,-1.85558 -7.2193,-3.14455 -2.3904,-1.28896 -6.3551,-3.42648 -8.8106,-4.75003 -10.34359,-5.57556 -17.94819,-6.96024 -27.50449,-5.00819 -6.6489,1.35815 -9.1375,1.3837 -11.8715,0.12189 -4.7675,-2.20035 -6.0278,-5.25776 -6.5164,-15.80877 -0.3907,-8.43559 -0.804,-9.73807 -3.972,-12.51967 -2.2988,-2.01839 -4.8169,-3.32812 -10.2504,-5.33151 -7.4752,-2.75619 -9.9757,-4.49926 -9.9757,-6.954 0,-3.40451 13.3681,-12.5468 25.0809,-17.15259 4.8283,-1.8986 7.9722,-3.69458 12.4549,-7.11487 2.3986,-1.83013 6.3942,-4.33495 8.8791,-5.56627 3.88,-1.92261 5.106,-2.27279 8.6819,-2.47979 3.7896,-0.21937 4.4627,-0.10115 7.4899,1.31545 8.31509,3.89112 16.42749,15.07079 24.28529,33.46787 5.846,13.68683 6.2295,22.16189 1.2583,27.80947 -4.3058,4.89161 -10.9072,6.40449 -16.4631,3.77289 -1.4438,-0.6839 -4.5698,-2.78815 -6.9466,-4.67613 -4.97299,-3.95031 -5.92509,-4.32594 -12.85619,-5.07231 -10.3169,-1.11096 -15.2826,-4.16622 -18.7093,-11.51133 -1.1946,-2.56072 -1.3775,-3.6446 -1.3835,-8.20104 -0.01,-4.70031 0.1476,-5.56521 1.4689,-8.25578 3.2131,-6.5433 9.9472,-9.94773 19.788,-10.00391 8.2087,-0.0469 12.70599,1.92063 15.58469,6.81805 1.2414,2.11198 1.4789,3.10628 1.4789,6.19129 0,4.55334 -1.1797,7.16327 -4.1149,9.1037 -1.8292,1.20926 -2.6472,1.39468 -6.08709,1.37975 -4.0006,-0.0174 -7.1205,-1.07985 -9.618,-3.27551 -1.3301,-1.16928 -1.1543,-3.60747 0.3699,-5.13167 1.5601,-1.56015 2.6196,-1.60739 5.6106,-0.25018 2.6152,1.18665 4.682,1.34603 5.5965,0.43156 1.08829,-1.08828 0.7134,-3.46144 -0.8138,-5.15148 -1.862,-2.06058 -6.127,-2.85561 -11.077,-2.06484 -8.7121,1.39177 -12.139,6.17698 -9.856,13.76279 1.7309,5.75105 4.4429,7.4047 13.9763,8.52202 7.4517,0.87334 9.44179,1.66939 14.76089,5.90443 6.4852,5.16354 8.5785,5.83022 11.9162,3.79526 5.1265,-3.12556 3.963,-10.81973 -4.1266,-27.28835 -6.6456,-13.52904 -11.2681,-19.76701 -16.70199,-22.53919 -4.6075,-2.35058 -9.2682,-0.86143 -17.8965,5.71817 -5.5136,4.20444 -7.3237,5.20707 -16.1632,8.95318 -6.5107,2.75912 -14.5757,7.32999 -13.9232,7.89094 0.2168,0.18633 1.8896,0.88388 3.7175,1.55011 6.3936,2.33039 12.2096,7.08847 14.8597,12.15676 1.036,1.98137 1.2371,3.36062 1.5191,10.42163 0.1787,4.47592 0.5112,8.55354 0.7387,9.06138 0.8077,1.80216 2.477,1.81849 10.2737,0.10046 7.788,-1.71612 18.3053,-0.0167 27.24409,4.4021 2.1975,1.08633 7.2359,3.6767 11.1964,5.75636 3.9606,2.07967 7.8075,3.78122 8.5487,3.78122 3.0275,0 8.3218,-3.62454 9.981,-6.83313 2.8951,-5.59855 1.6157,-22.83672 -2.6347,-35.49845 -3.0091,-8.9638 -11.0988,-22.52303 -20.2401,-33.9245 -5.1859,-6.46804 -5.6603,-7.88043 -3.4048,-10.13598 2.714,-2.71396 4.3236,-1.63606 11.8139,7.91112 11.9413,15.22051 18.9504,29.1384 22.0886,43.86092 1.399,6.56333 2.0035,20.53621 1.0979,25.37636 -1.2684,6.77865 -4.8786,11.6674 -11.0419,14.95242 -3.7619,2.00508 -7.6267,2.45707 -11.5816,1.35447 z m -150.39049,14.85697 c -3.5061,-4.76622 -5.3326,-11.83096 -4.4599,-17.25023 0.9342,-5.80049 2.982,-8.91779 10.8285,-16.48325 9.0016,-8.67921 15.6281,-17.63005 15.2719,-20.62874 -0.2209,-1.8601 -1.6321,-2.11571 -8.5613,-1.55069 -7.1372,0.58199 -17.8721,0.17066 -21.9851,-0.84239 -3.5793,-0.88162 -6.8798,-3.02634 -8.6364,-5.61208 -1.0447,-1.53788 -1.2041,-2.32003 -1.0345,-5.07457 0.1644,-2.66932 0.4886,-3.61595 1.7984,-5.25034 2.8751,-3.58776 3.0214,-4.13064 1.7952,-6.66363 -0.7098,-1.46627 -2.1405,-3.01757 -4.1024,-4.44832 -8.3796,-6.11088 -10.1004,-8.15788 -10.1004,-12.0145 0,-4.36974 2.2317,-6.86549 9.0313,-10.09987 5.7567,-2.73829 7.7698,-4.85292 7.7698,-8.16193 0,-1.95321 -0.3149,-2.6914 -1.8933,-4.43843 -1.0412,-1.15256 -3.6025,-3.03913 -5.6917,-4.19237 l -3.7984,-2.09681 -8.6155,-0.53097 c -12.9205,-0.79627 -19.5252,-1.57511 -36.4168,-4.2943 -9.6762,-1.55765 -10.5337,-1.80323 -31.1415,-8.91812 -11.6553,-4.024 -21.8766,-7.4534 -22.714,-7.62088 -0.8374,-0.16749 -2.1533,-0.14622 -2.9242,0.0472 -1.3697,0.34377 -1.3954,0.42579 -1.1308,3.60575 0.4288,5.15211 2.6862,10.08491 6.1978,13.54311 9.5837,9.43793 37.4534,16.14227 73.1921,17.6071 7.4857,0.30681 8.9386,0.50439 10.0316,1.36413 1.8782,1.47738 1.7935,4.64411 -0.1657,6.19915 -1.3842,1.09859 -1.7586,1.13192 -9.0569,0.80636 -25.7795,-1.14997 -45.3185,-4.19075 -61.3792,-9.55225 -4.0117,-1.3392 -6.1737,-1.7823 -8.138,-1.66783 l -2.6751,0.15587 -0.1643,2.29081 c -0.2071,2.88698 1.4791,8.50616 3.5124,11.70448 6.9195,10.88448 33.8704,18.33459 73.832,20.40961 10.7531,0.55835 11.055,0.60492 12.2071,1.88307 1.4722,1.63331 1.5031,3.32655 0.093,5.11896 -1.0696,1.35975 -1.1979,1.38339 -7.5081,1.38339 -16.9689,0 -43.678,-3.50363 -57.4233,-7.53267 l -4.3281,-1.26863 -0.6368,2.16926 c -0.3503,1.19309 -0.6431,4.05937 -0.6507,6.36953 -0.011,3.39631 0.221,4.6525 1.2133,6.56293 5.1684,9.95086 20.1399,15.99574 47.7085,19.26275 5.4919,0.65082 12.514,0.87085 29.2763,0.91734 12.1283,0.0337 22.3235,0.23177 22.6561,0.44027 1.2015,0.75338 1.6767,3.24932 0.9484,4.9814 -0.9832,2.33831 -2.7065,2.64099 -17.3041,3.03924 -27.5102,0.75054 -54.7389,-2.3854 -69.3308,-7.98487 -1.3845,-0.53128 -0.4504,6.27383 1.3922,10.14171 3.5583,7.46967 16.4727,16.05875 35.6956,23.74033 9.7869,3.91088 13.5592,5.07499 22.2902,6.87864 6.2171,1.28432 23.2103,4.38781 25.6366,4.68204 0.2518,0.0305 0.067,-0.47608 -0.4111,-1.12581 z M 1032.4023,321.64596 c 17.2675,-1.91694 35.2707,-7.32791 46.5694,-13.99665 4.8932,-2.88811 12.168,-9.49645 14.5632,-13.2291 l 1.6332,-2.54511 -3.524,-6.22662 -3.5241,-6.22663 -0.6311,2.47385 c -0.9814,3.84727 -2.4792,6.29428 -4.8986,8.00329 -1.8763,1.32539 -2.6944,1.56308 -5.2602,1.52822 -3.2472,-0.0441 -8.5854,-2.14674 -11.9334,-4.70039 -1.8473,-1.40901 -3.4452,-1.6461 -4.2375,-0.62874 -0.2811,0.36096 -0.7927,2.41718 -1.1369,4.56937 -0.8023,5.01607 -2.0272,7.7426 -4.424,9.84699 -4.121,3.61823 -9.5855,3.22999 -16.1936,-1.1505 l -3.4983,-2.31903 -0.3704,2.73025 c -1.2095,8.91545 -6.7281,14.54353 -14.2606,14.54353 h -1.7482 l 2.0961,4.16888 c 2.0452,4.06778 2.1377,4.1637 3.8124,3.95507 0.9439,-0.1176 4.0789,-0.4761 6.9666,-0.79668 z m -7.6868,-17.05887 c 1.5589,-1.31174 2.0523,-2.7683 2.9675,-8.76041 0.5945,-3.89306 4.3726,-6.83081 8.7846,-6.83081 2.191,0 3.0883,0.35438 6.078,2.40035 3.2459,2.22123 5.777,3.49619 6.941,3.49619 0.9329,0 2.0393,-3.0636 2.528,-6.99993 0.5771,-4.64812 1.9132,-7.16435 4.8289,-9.09389 4.0277,-2.66538 8.0645,-2.32972 13.2946,1.10543 4.3489,2.85637 6.8853,3.78978 7.9337,2.91967 1.2852,-1.06666 1.9665,-6.00934 1.5655,-11.35806 -0.4227,-5.63731 -0.4973,-5.78578 -6.8577,-13.64662 -5.2624,-6.50366 -16.2571,-17.02811 -22.2896,-21.33614 -5.8785,-4.19804 -15.2198,-9.09739 -21.664,-11.36239 -8.0647,-2.83455 -14.3671,-3.90884 -23.2005,-3.95462 -15.05069,-0.078 -22.75089,2.60608 -39.94949,13.92536 l -7.9225,5.21417 1.2279,4.58576 c 1.8777,7.0129 2.6331,15.05385 1.8456,19.64604 -0.3547,2.06832 -0.4614,3.92903 -0.2371,4.13492 0.2242,0.20589 2.6522,1.25992 5.3955,2.34229 16.1173,6.35908 31.7793,16.7291 41.36379,27.38754 3.5161,3.91004 5.8464,5.5178 9.8271,6.78002 3.433,1.08858 5.7564,0.90525 7.5392,-0.59487 z m -23.6146,-36.6463 c -7.50269,-2.7797 -11.94249,-9.66775 -11.36799,-17.63697 0.4407,-6.11486 4.153,-11.44744 9.8547,-14.15607 2.42109,-1.15013 3.60889,-1.36972 7.35049,-1.35888 5.2862,0.0153 8.3844,1.25925 11.9084,4.78113 3.416,3.41397 4.518,6.01203 4.7851,11.28072 0.2059,4.06148 0.085,4.84614 -1.1845,7.67466 -1.6011,3.5676 -4.6796,6.82302 -8.1585,8.62738 -2.8774,1.49236 -10.1186,1.92506 -13.1877,0.78803 z m 8.1752,-7.75771 c 4.3906,-1.21895 7.2287,-6.11287 6.0607,-10.45054 -2.0073,-7.45453 -11.3023,-9.20535 -15.93419,-3.00139 -1.3897,1.86131 -1.7745,6.52218 -0.7073,8.56652 1.49039,2.85503 4.95269,5.28786 7.71779,5.42311 0.4331,0.0212 1.7215,-0.22078 2.863,-0.5377 z m -56.74469,4.19169 c 0.6075,-3.03725 0.3212,-8.56425 -0.6998,-13.51253 -0.5578,-2.7033 -1.131,-5.03184 -1.2737,-5.17455 -0.1427,-0.1427 -3.3278,1.27478 -7.078,3.14996 -4.2247,2.1124 -10.0791,4.45051 -15.3893,6.14609 -4.7139,1.50517 -9.0433,2.93321 -9.6208,3.17344 -0.9625,0.40035 -0.942,0.43973 0.2462,0.47231 2.2713,0.0623 21.6059,4.1736 27.0556,5.75316 2.8877,0.83698 5.5161,1.54677 5.841,1.57731 0.3249,0.0306 0.7383,-0.68278 0.9188,-1.58519 z m 193.69769,146.57155 c -2.9087,-1.77353 -3.4439,-3.54758 -3.8866,-12.8846 -0.4152,-8.75834 -1.3673,-15.88778 -3.1022,-23.23075 -0.7897,-3.34268 -0.8923,-4.61594 -0.4503,-5.58622 1.0544,-2.31413 5.0136,-3.23069 6.4958,-1.50378 0.4337,0.50534 1.658,1.94005 2.7206,3.18823 2.8553,3.35396 5.434,4.5333 9.8792,4.51813 3.1577,-0.0108 4.2505,-0.29012 7.7603,-1.98364 4.5663,-2.20333 9.2031,-6.39153 10.3057,-9.30871 1.2866,-3.404 1.7682,-4.09112 3.3172,-4.73275 2.3844,-0.98761 4.1036,-0.10931 5.7549,2.93998 2.5249,4.66239 3.2572,12.51301 1.5234,16.33091 -1.7505,3.85443 -26.9418,29.85561 -31.101,32.10069 -2.8153,1.51971 -6.8649,1.58671 -9.217,0.15251 z m 10.1244,-11.96579 c 6.5753,-6.09915 25.2399,-26.18475 22.2654,-23.96061 -0.4301,0.32162 -1.9633,1.4816 -3.4072,2.57774 -6.2795,4.7673 -14.7226,7.26958 -20.8694,6.18507 -1.8052,-0.3185 -3.6425,-0.72582 -4.0829,-0.90516 -0.7106,-0.28939 -0.7299,0.2804 -0.1713,5.06639 0.3461,2.96585 0.6473,7.69604 0.6694,10.51154 0.022,2.81549 0.1758,5.11908 0.3417,5.11908 0.1658,0 2.5303,-2.06732 5.2543,-4.59405 z m -3.57,-32.65077 c -2.992,-1.16969 -7.0904,-4.10588 -8.6107,-6.16896 -2.8174,-3.82337 -3.5843,-6.04821 -3.5991,-10.44107 -0.013,-3.81886 0.144,-4.49547 1.5824,-6.82545 4.1315,-6.69275 13.5533,-6.93472 17.3561,-0.44575 2.517,4.29503 1.0642,9.14762 -2.7387,9.14762 -2.1853,0 -4.4008,-1.94202 -4.4008,-3.85772 0,-1.73967 -1.3544,-2.13836 -2.6984,-0.79431 -3.2983,3.29823 2.0774,11.1933 8.0681,11.84951 2.905,0.31821 5.4512,-1.31425 7.1381,-4.57654 4.3255,-8.36482 -4.9276,-23.22563 -13.5982,-21.83914 -3.4166,0.54633 -6.153,2.2409 -10.7905,6.6822 -2.375,2.2745 -4.7017,4.13545 -5.1703,4.13545 -1.2961,0 -3.782,-1.4297 -4.1491,-2.38618 -1.021,-2.66089 -0.3932,-4.00521 3.7653,-8.06145 6.7783,-6.61177 13.2071,-9.49672 19.5114,-8.75577 6.6266,0.77882 13.3224,6.04537 16.9792,13.35491 4.9233,9.84108 3.7822,19.47148 -3.0466,25.71264 -4.5812,4.18695 -10.2258,5.37028 -15.5982,3.27001 z m 28.1059,-22.58299 c -1.9288,-1.17604 -2.563,-2.20894 -3.6679,-5.97403 -2.5772,-8.7813 -8.5163,-16.82299 -14.4468,-19.56122 -2.9294,-1.35258 -3.8624,-1.52385 -8.0393,-1.47569 -5.573,0.0643 -10.8821,1.78909 -17.5633,5.70603 -4.574,2.68152 -6.6559,2.9726 -9.3805,1.31149 -2.138,-1.30351 -3.4723,-4.17136 -4.8142,-10.34773 -2.8655,-13.18811 -2.7669,-27.62109 0.3168,-46.34005 2.7389,-16.62626 7.6547,-33.48131 16.3845,-56.1787 10.0196,-26.05076 13.4296,-41.22677 13.4491,-59.85395 0.014,-13.81827 -1.4129,-20.6991 -6.3423,-30.57278 -1.2586,-2.52096 -2.2883,-5.30881 -2.2883,-6.19523 0,-3.3139 2.2885,-5.87859 5.84,-6.54486 3.5776,-0.67116 12.2067,5.24099 17.8258,12.21317 6.7634,8.39207 10.8851,17.55947 13.8615,30.83023 0.7289,3.24982 1.3253,6.41059 1.3253,7.02393 0,0.61335 1.434,3.04925 3.1867,5.41313 12.2312,16.49616 16.7766,43.9171 12.2776,74.06589 -1.0549,7.06934 -1.1384,6.69765 1.504,6.69765 6.3736,0 12.1871,4.08673 14.4618,10.16624 2.1571,5.76543 2.3868,17.19321 0.5501,27.37374 -1.5807,8.76235 -5.3601,25.01483 -6.8114,29.29096 -2.1057,6.20466 -6.5139,15.29882 -9.8519,20.32481 -3.5069,5.28028 -9.197,11.87069 -11.0978,12.85358 -2.0993,1.08561 -4.6705,0.99837 -6.6795,-0.22661 z m 8.7832,-14.2846 c 1.6435,-2.21116 4.3241,-6.63216 5.957,-9.82445 4.8462,-9.47421 7.206,-17.53845 11.0821,-37.87118 3.5876,-18.81977 1.3372,-29.57551 -6.141,-29.3496 -4.0257,0.12161 -4.1801,0.29186 -5.6825,6.26497 -2.5751,10.23829 -4.8389,16.09048 -8.4137,21.75068 -3.8622,6.11548 -7.1326,7.93455 -9.7851,5.44271 -1.6686,-1.56762 -1.6402,-4.39249 0.062,-6.18016 1.9936,-2.09344 4.8733,-7.18869 6.6141,-11.70286 6.9224,-17.95039 10.6488,-54.16814 7.4095,-72.01556 -1.2477,-6.87449 -3.9098,-15.38934 -6.2718,-20.06052 l -1.5249,-3.01553 -0.3647,3.89835 c -2.3452,25.06652 -10.4744,60.48634 -21.2593,92.62921 -3.9586,11.79791 -4.5955,12.86335 -7.6892,12.86335 -1.8789,0 -3.9177,-1.92749 -3.9177,-3.70379 0,-0.51536 1.5515,-5.50414 3.4478,-11.08618 11.412,-33.5932 19.1225,-67.98754 21.5503,-96.13094 0.7984,-9.25398 0.7945,-10.1619 -0.064,-14.96349 -2.6172,-14.63541 -8.2486,-26.90615 -15.7108,-34.23323 -1.6075,-1.57837 -2.9227,-2.72023 -2.9227,-2.53747 0,0.18276 0.8081,2.77361 1.7957,5.75745 2.8505,8.61171 3.6634,14.4084 3.6323,25.9015 -0.053,19.42803 -3.9658,36.75027 -14.3517,63.5292 -12.9065,33.2783 -18.466,58.85093 -17.6901,81.37105 0.2696,7.82555 1.6912,18.052 2.6414,19.00226 0.1305,0.13045 2.1043,-0.70158 4.3863,-1.84894 21.1673,-10.64273 38.0819,-4.39423 46.9958,17.36103 1.9413,4.73788 1.7351,4.77928 6.2149,-1.24786 z"
       id="path2" /></g></svg>
