<svg width="32" height="32" viewBox="0 0 32 32" fill="none" xmlns="http://www.w3.org/2000/svg">
<path d="M30.0533 8.56C29.8949 7.92722 29.5724 7.34743 29.1182 6.87921C28.664 6.41099 28.0943 6.07092 27.4667 5.89334C25.1733 5.33334 16 5.33334 16 5.33334C16 5.33334 6.82666 5.33334 4.53333 5.94667C3.90566 6.12425 3.33596 6.46432 2.88179 6.93254C2.42762 7.40076 2.10505 7.98055 1.94666 8.61334C1.52695 10.9407 1.32164 13.3017 1.33333 15.6667C1.31837 18.0494 1.52368 20.4284 1.94666 22.7733C2.12127 23.3865 2.45107 23.9442 2.90419 24.3926C3.3573 24.8411 3.91842 25.1651 4.53333 25.3333C6.82666 25.9467 16 25.9467 16 25.9467C16 25.9467 25.1733 25.9467 27.4667 25.3333C28.0943 25.1558 28.664 24.8157 29.1182 24.3475C29.5724 23.8792 29.8949 23.2995 30.0533 22.6667C30.4698 20.3568 30.6751 18.0138 30.6667 15.6667C30.6816 13.2839 30.4763 10.9049 30.0533 8.56Z" stroke="#71A9DA" stroke-width="2" stroke-linecap="round" stroke-linejoin="round"/>
<path d="M13 20.0267L20.6667 15.6667L13 11.3067V20.0267Z" stroke="#71A9DA" stroke-width="2" stroke-linecap="round" stroke-linejoin="round"/>
</svg>
